<?xml version="1.0" encoding="utf-8"?>
<!-- Generator: Adobe Illustrator 24.1.0, SVG Export Plug-In . SVG Version: 6.00 Build 0)  -->
<svg version="1.1" id="圖層_1" xmlns="http://www.w3.org/2000/svg" xmlns:xlink="http://www.w3.org/1999/xlink" x="0px" y="0px"
	 viewBox="0 0 259 210" style="enable-background:new 0 0 259 210;" xml:space="preserve">
<style type="text/css">
	.st0{fill:url(#SVGID_1_);}
	.st1{fill:url(#SVGID_2_);}
	.st2{fill:url(#SVGID_3_);}
</style>
<g>
	<linearGradient id="SVGID_1_" gradientUnits="userSpaceOnUse" x1="118.2956" y1="33.1352" x2="74.4876" y2="160.8226">
		<stop  offset="1.047867e-02" style="stop-color:#FC987C"/>
		<stop  offset="0.5277" style="stop-color:#FDC0AF"/>
		<stop  offset="1" style="stop-color:#FDE0D8"/>
	</linearGradient>
	<path class="st0" d="M112.4,154.6c-7.9,0-15.9-1.4-23.1-4.6c-16.7-7.3-25.6-20.6-25.6-41.5l0,0c0-13.1,4.7-24.5,12.2-33.1
		c9.3-10.8,23.1-16.5,37.3-16.5h21.3c9.3,0,16.9-8,16.9-17.9v0c0-15.8-12.1-28.7-27-28.7h-19.1c-48.9,0-88.9,42.5-88.9,94.4v0
		c0,51.9,40,94.4,88.9,94.4h19.1c14.8,0,27-12.9,27-28.7v0c0-9.9-7.6-17.9-16.9-17.9L112.4,154.6z"/>
	<linearGradient id="SVGID_2_" gradientUnits="userSpaceOnUse" x1="215.858" y1="31.5315" x2="132.5854" y2="124.5265">
		<stop  offset="1.047867e-02" style="stop-color:#FC987C"/>
		<stop  offset="0.5277" style="stop-color:#FDC0AF"/>
		<stop  offset="1" style="stop-color:#FEE8EB"/>
	</linearGradient>
	<path class="st1" d="M231.3,55.2l-70.6,63.7c-13.3,11.8-9.1,15.4-9.5,33.2l1.5,2.9L121,121.3c-10.1-11.5-9-29.2,2.4-39.3L198,17.4
		c9.3-8.2,23.6-7.3,31.8,2l3.5,4C241.5,32.7,240.6,47,231.3,55.2z"/>
	<linearGradient id="SVGID_3_" gradientUnits="userSpaceOnUse" x1="172.8579" y1="126.1594" x2="231.934" y2="193.5782">
		<stop  offset="1.047867e-02" style="stop-color:#FC987C"/>
		<stop  offset="0.5277" style="stop-color:#FDC0AF"/>
		<stop  offset="1" style="stop-color:#FEE8EB"/>
	</linearGradient>
	<path class="st2" d="M192.3,194l-36.9-35.9c-10-10-9.5-24.5,0.5-34.5l33.2-30.8l-1,5.2c-1.3,7.1,0.4,14.6,5.1,20
		c0.4,0.5,0.8,0.9,1.2,1.3l36.8,35.6c10,10,10,26.4,0,36.3l-2.6,2.6C218.7,204,202.3,204,192.3,194z"/>
</g>
</svg>
